
        <svg width="400px" height="400px" viewBox="0 0 400 400" version="1.1" xmlns="http://www.w3.org/2000/svg" xmlns:xlink="http://www.w3.org/1999/xlink">
          <defs>
            <linearGradient x1="0%" y1="50%" x2="100%" y2="50%" id="shadeGradientLight">
              <stop stop-color="#d3dde1" offset="0%"></stop>
              <stop stop-color="#cbd8dc" offset="16.67%"></stop>
              <stop stop-color="#c4d2d7" offset="33.33%"></stop>
              <stop stop-color="#bccdd2" offset="50%"></stop>
              <stop stop-color="#b5c7cd" offset="66.67%"></stop>
              <stop stop-color="#a3b3b9" offset="83.33%"></stop>
              <stop stop-color="#919fa4" offset="100%"></stop>
            </linearGradient>
            <linearGradient x1="0%" y1="50%" x2="100%" y2="50%" id="shadeGradientDark">
              <stop stop-color="#474247" offset="0%"></stop>
              <stop stop-color="#656066" offset="16.67%"></stop>
              <stop stop-color="#847e85" offset="33.33%"></stop>
              <stop stop-color="#a29da3" offset="50%"></stop>
              <stop stop-color="#c1bcc2" offset="66.67%"></stop>
              <stop stop-color="#e0dce0" offset="83.33%"></stop>
              <stop stop-color="#fffcff" offset="100%"></stop>
            </linearGradient>
          </defs>
          <g id="light">
            <rect fill="#dae3e6" x="0" y="0" width="400" height="200"></rect>
            <rect fill="#a87777" x="28" y="28" width="74" height="37"></rect>
            <rect fill="#6c8497" x="118" y="28" width="74" height="37"></rect>
            <rect fill="#7893a8" x="208" y="28" width="74" height="37"></rect>
            <rect fill="#869eb1" x="298" y="28" width="74" height="37"></rect>
            <rect fill="#93a9b9" x="28" y="81" width="74" height="37"></rect>
            <rect fill="#a1b3c2" x="118" y="81" width="74" height="37"></rect>
            <rect fill="#aebecb" x="208" y="81" width="74" height="37"></rect>
            <rect fill="#bcc9d4" x="298" y="81" width="74" height="37"></rect>
            <rect fill="url(#shadeGradientLight)" x="28" y="134" width="344" height="37"></rect>
          </g>
          <g id="dark" transform="translate(0.000000, 200.000000)">
            <rect fill="#282629" x="0" y="0" width="400" height="200"></rect>
            <rect fill="#ff4050" x="28" y="28" width="74" height="37"></rect>
            <rect fill="#f28144" x="118" y="28" width="74" height="37"></rect>
            <rect fill="#ffd24a" x="208" y="28" width="74" height="37"></rect>
            <rect fill="#a4cc35" x="298" y="28" width="74" height="37"></rect>
            <rect fill="#26c99e" x="28" y="81" width="74" height="37"></rect>
            <rect fill="#66bfff" x="118" y="81" width="74" height="37"></rect>
            <rect fill="#cc78fa" x="208" y="81" width="74" height="37"></rect>
            <rect fill="#f553bf" x="298" y="81" width="74" height="37"></rect>
            <rect fill="url(#shadeGradientDark)" x="28" y="134" width="344" height="37"></rect>
          </g>
        </svg>
      